<mxfile host="app.diagrams.net" modified="2023-06-29T12:41:55.286Z" agent="Mozilla/5.0 (Macintosh; Intel Mac OS X 10_15_7) AppleWebKit/537.36 (KHTML, like Gecko) Chrome/114.0.0.0 Safari/537.36" version="21.5.2" etag="tfVjXd4zlQ5bB4wHvMmt" type="github">
  <diagram name="Page-1" id="2HzMxKaI2FZOhQmSiqn4">
    <mxGraphModel>
      <root>
        <mxCell id="0" />
        <mxCell id="1" parent="0" />
      </root>
    </mxGraphModel>
  </diagram>
</mxfile>
